<?xml version="1.0" encoding="UTF-8"?>
<svg xmlns="http://www.w3.org/2000/svg" version="1.1" width="256" height="256" style="background: transparent;">
<path d="M0 0 C2.31943033 1.73157471 4.51730819 3.54420962 6.703125 5.44140625 C7.4559375 6.08722656 8.20875 6.73304687 8.984375 7.3984375 C20.58356781 18.10385689 27.20803206 32.44480289 27.85742188 48.18017578 C28.06929571 57.26757713 27.92565128 66.355487 27.703125 75.44140625 C28.95738281 75.40789062 30.21164063 75.374375 31.50390625 75.33984375 C37.27828882 75.1855437 40.22093505 78.06849803 44.32876587 81.87345886 C47.94129575 86.32800599 47.47720398 91.40156257 47.50537109 96.90356445 C47.53031143 98.05065887 47.55525177 99.1977533 47.58094788 100.37960815 C47.65555189 104.16720505 47.6930752 107.95401838 47.7265625 111.7421875 C47.76254572 114.38007258 47.79939289 117.01794601 47.83706665 119.6558075 C47.91137579 125.18443841 47.96203994 130.71296766 48.00195312 136.24194336 C48.04856704 142.61637282 48.14706517 148.98854782 48.27034891 155.36191493 C48.38686854 161.51161362 48.45271253 167.66087722 48.49953079 173.81148338 C48.52575985 176.4194824 48.56655207 179.027378 48.6223259 181.63491249 C48.69568395 185.28808948 48.7111091 188.93724563 48.71240234 192.59106445 C48.74625534 193.66201859 48.78010834 194.73297272 48.81498718 195.83638 C48.74660819 201.98106877 47.7270104 205.0907847 43.39004517 209.55705261 C38.51110815 213.96911434 35.33470177 215.68801713 28.71975708 215.70883179 C27.49446289 215.71736176 26.2691687 215.72589172 25.00674438 215.73468018 C23.6517943 215.73398118 22.29684433 215.73305813 20.94189453 215.73193359 C19.5126307 215.73791903 18.08337011 215.74472461 16.65411377 215.75228882 C12.77388894 215.76995456 8.89375231 215.77464443 5.01349115 215.77592039 C2.58854283 215.77734222 0.16361692 215.78161242 -2.26132584 215.78691483 C-10.72322259 215.80541698 -19.18505634 215.8135852 -27.64697266 215.81201172 C-35.53140784 215.81081025 -43.4155693 215.83191301 -51.29993522 215.86349905 C-58.07204121 215.88966119 -64.84405779 215.90037904 -71.61621392 215.8991009 C-75.65962415 215.89859125 -79.70279113 215.9042761 -83.74615097 215.925457 C-87.54985069 215.94483855 -91.35307508 215.94496482 -95.15679169 215.93042374 C-96.55075653 215.9283344 -97.94475112 215.93304409 -99.33866501 215.94514465 C-108.11924722 216.01641646 -112.81573432 215.80981383 -119.16015625 209.625 C-119.63839844 209.04878906 -120.11664063 208.47257813 -120.609375 207.87890625 C-121.10050781 207.30011719 -121.59164062 206.72132813 -122.09765625 206.125 C-124.24069252 203.11637253 -124.42647944 200.42152655 -124.45077515 196.85128784 C-124.45937561 195.90937088 -124.46797607 194.96745392 -124.47683716 193.99699402 C-124.48109711 192.9652858 -124.48535706 191.93357758 -124.48974609 190.87060547 C-124.49792358 189.78247055 -124.50610107 188.69433563 -124.51452637 187.57322693 C-124.53938268 183.96418814 -124.55589854 180.35518874 -124.5703125 176.74609375 C-124.57563618 175.51339878 -124.58095985 174.28070381 -124.58644485 173.01065445 C-124.61042229 167.15711239 -124.62966175 161.30358653 -124.6424669 155.45000923 C-124.65750932 148.70844499 -124.69256079 141.96736676 -124.74446809 135.22598827 C-124.78796701 129.37567125 -124.80382551 123.52551622 -124.81019974 117.67505264 C-124.81690899 115.19280378 -124.83212238 112.71056247 -124.85609055 110.22842026 C-124.88777575 106.74806772 -124.88777276 103.26903365 -124.88037109 99.78857422 C-124.89677643 98.76901138 -124.91318176 97.74944855 -124.93008423 96.69898987 C-124.87113321 89.90395719 -123.47896944 84.8910959 -119.296875 79.44140625 C-114.63894189 75.23488091 -110.22873094 75.30002523 -104.296875 75.44140625 C-104.31258545 74.60593262 -104.3282959 73.77045898 -104.34448242 72.90966797 C-104.39635256 69.7374919 -104.4335784 66.56553554 -104.46166992 63.39306641 C-104.48374667 61.37387513 -104.52191157 59.35487983 -104.56054688 57.3359375 C-104.69637327 38.95409809 -100.41486824 23.05689972 -87.63354492 9.57568359 C-80.95527909 2.87581996 -73.15296065 -3.08440253 -64.296875 -6.55859375 C-63.38550781 -6.92984375 -62.47414062 -7.30109375 -61.53515625 -7.68359375 C-41.44490695 -14.66307722 -17.60272434 -11.9447058 0 0 Z M-68.296875 25.44140625 C-78.53966989 41.43592443 -77.296875 56.28928598 -77.296875 75.44140625 C-51.556875 75.44140625 -25.816875 75.44140625 0.703125 75.44140625 C1.70747665 46.53554833 1.70747665 46.53554833 -11.296875 22.44140625 C-12.06257813 21.52681641 -12.06257813 21.52681641 -12.84375 20.59375 C-18.48040854 14.27264007 -25.12433306 10.7351844 -33.5859375 9.92578125 C-48.15604107 9.11839335 -59.10934552 13.77740278 -68.296875 25.44140625 Z M-106.296875 95.44140625 C-107.61965621 99.40974989 -107.44431404 103.21014375 -107.44213867 107.34741211 C-107.44549728 108.25826065 -107.4488559 109.16910919 -107.45231628 110.1075592 C-107.46182895 113.12380327 -107.4637695 116.13999186 -107.46484375 119.15625 C-107.4680559 121.24988325 -107.47141994 123.34351627 -107.47492981 125.43714905 C-107.48092172 129.82781495 -107.48276962 134.21846116 -107.48217773 138.60913086 C-107.48207606 144.23950017 -107.49573339 149.86974353 -107.51294994 155.50008297 C-107.52405928 159.82459597 -107.52609728 164.1490784 -107.52556801 168.4736042 C-107.52674954 170.54966224 -107.53118096 172.62572104 -107.53890038 174.70176506 C-107.54867951 177.60326889 -107.54583049 180.50449776 -107.53979492 183.40600586 C-107.54541443 184.26588104 -107.55103394 185.12575623 -107.55682373 186.01168823 C-107.55262924 186.80378189 -107.54843475 187.59587555 -107.54411316 188.41197205 C-107.54465793 189.09757674 -107.54520269 189.78318144 -107.54576397 190.48956203 C-107.23840102 192.89997261 -106.63591117 194.40970699 -105.296875 196.44140625 C-102.27816338 198.5066912 -99.75233768 198.69390966 -96.14871216 198.70210266 C-95.10852936 198.70918747 -94.06834656 198.71627228 -92.99664307 198.72357178 C-91.86095886 198.72109436 -90.72527466 198.71861694 -89.55517578 198.71606445 C-88.35478668 198.72117538 -87.15439758 198.72628632 -85.91763306 198.73155212 C-82.62826863 198.74307083 -79.33906048 198.74552153 -76.04968119 198.74298882 C-73.3012636 198.74191841 -70.55286921 198.74680439 -67.80445659 198.75159425 C-61.31835053 198.76268735 -54.83230237 198.76312825 -48.34619141 198.75708008 C-41.66148301 198.75104239 -34.97698521 198.76334639 -28.29231274 198.78465015 C-22.54779856 198.80228253 -16.80335131 198.80826485 -11.05881107 198.8050124 C-7.63024538 198.80320167 -4.20182985 198.80581437 -0.77328873 198.81972694 C3.052185 198.83205445 6.87717088 198.82532098 10.70263672 198.8137207 C11.83427246 198.82136444 12.9659082 198.82900818 14.13183594 198.83688354 C21.8500247 198.79616369 21.8500247 198.79616369 28.703125 195.44140625 C30.0238991 191.47908396 29.85888971 187.68267805 29.86425781 183.55126953 C29.86922272 182.64202728 29.87418762 181.73278503 29.87930298 180.79598999 C29.89392219 177.78455858 29.90072592 174.77317983 29.90625 171.76171875 C29.91200129 169.67048135 29.91775902 167.57924396 29.92352295 165.48800659 C29.934032 161.10153965 29.93987542 156.71509104 29.94335938 152.32861328 C29.9488464 146.70725654 29.97287939 141.08614174 30.00133133 135.46486092 C30.01995153 131.14459525 30.02516297 126.82438795 30.02669525 122.50408554 C30.02972328 120.43163606 30.03775686 118.35918764 30.05088043 116.2867775 C30.06792915 113.38777476 30.06606357 110.48936451 30.05957031 107.59033203 C30.07339249 106.30591217 30.07339249 106.30591217 30.0874939 104.99554443 C30.05472715 100.32708353 29.75081434 97.22684788 26.703125 93.44140625 C24.19276912 92.18622831 22.47839262 92.30995799 19.66812134 92.30096436 C18.06977196 92.29239914 18.06977196 92.29239914 16.43913269 92.28366089 C14.6780291 92.2819841 14.6780291 92.2819841 12.88134766 92.28027344 C11.64877731 92.27530853 10.41620697 92.27034363 9.14628601 92.26522827 C5.75986439 92.25310653 2.37350463 92.24565812 -1.01293135 92.24121761 C-3.12795371 92.23828798 -5.24297064 92.23418339 -7.35799026 92.22971344 C-13.97345816 92.21603696 -20.58891365 92.20637099 -27.2043947 92.20251155 C-34.84466097 92.19802995 -42.48474841 92.18047811 -50.1249603 92.15151095 C-56.02820274 92.12990516 -61.93139482 92.11980787 -67.83467638 92.11847043 C-71.3615885 92.11742162 -74.88833255 92.11149794 -78.41520309 92.09365082 C-82.34896383 92.07413219 -86.28250052 92.07845472 -90.21630859 92.08496094 C-91.38632919 92.07574615 -92.55634979 92.06653137 -93.76182556 92.05703735 C-94.83303146 92.06260651 -95.90423737 92.06817566 -97.00790405 92.07391357 C-97.93816092 92.07244701 -98.86841778 92.07098045 -99.82686424 92.06946945 C-102.79417795 92.51629065 -104.14596897 93.37421414 -106.296875 95.44140625 Z " fill="#EEEDED" transform="translate(166.296875,14.55859375)"/>
<path d="M0 0 C4.78623829 2.52233724 7.98822617 6.17952225 9.68359375 11.265625 C10.34806509 18.71641833 10.30766719 24.22864023 5.68359375 30.265625 C3.43359375 32.203125 3.43359375 32.203125 1.68359375 33.265625 C2.25993774 36.72786259 3.13290837 39.51060136 4.75 42.62109375 C5.35424805 43.80155273 5.35424805 43.80155273 5.97070312 45.00585938 C6.39158203 45.81345703 6.81246094 46.62105469 7.24609375 47.453125 C8.08430477 49.06976568 8.91911811 50.68817402 9.75 52.30859375 C10.12068604 53.02039795 10.49137207 53.73220215 10.87329102 54.46557617 C11.68359375 56.265625 11.68359375 56.265625 11.68359375 58.265625 C-1.51640625 58.265625 -14.71640625 58.265625 -28.31640625 58.265625 C-26.07169395 51.53148809 -26.07169395 51.53148809 -24.37109375 48.28515625 C-24.01660156 47.59615234 -23.66210938 46.90714844 -23.296875 46.19726562 C-22.55341881 44.772089 -21.80860343 43.34762066 -21.0625 41.92382812 C-18.90407347 37.81051426 -18.90407347 37.81051426 -18.31640625 33.265625 C-19.07953125 32.6675 -19.84265625 32.069375 -20.62890625 31.453125 C-24.64434096 28.18474791 -26.14157474 24.93686387 -26.6796875 19.79296875 C-26.66292969 18.60832031 -26.64617187 17.42367187 -26.62890625 16.203125 C-26.62503906 15.01589844 -26.62117188 13.82867187 -26.6171875 12.60546875 C-26.25637156 8.59900601 -25.6212234 5.68619206 -22.86328125 2.68359375 C-16.14118873 -1.9195783 -7.74161479 -2.45433993 0 0 Z " fill="#EEEDED" transform="translate(136.31640625,127.734375)"/>
</svg>