<?xml version="1.0" encoding="UTF-8"?>
<svg xmlns="http://www.w3.org/2000/svg" version="1.1" width="256" height="256" style="background: transparent;">
<path d="M0 0 C2.31943033 1.73157471 4.51730819 3.54420962 6.703125 5.44140625 C7.4559375 6.08722656 8.20875 6.73304687 8.984375 7.3984375 C20.58356781 18.10385689 27.20803206 32.44480289 27.85742188 48.18017578 C28.06929571 57.26757713 27.92565128 66.355487 27.703125 75.44140625 C28.95738281 75.40789062 30.21164063 75.374375 31.50390625 75.33984375 C37.27858309 75.18553584 40.21825246 78.07332492 44.335495 81.86672974 C47.97084745 86.35035461 47.42518229 91.4835519 47.39770508 97.01123047 C47.41807579 98.7489119 47.41807579 98.7489119 47.43885803 100.521698 C47.47612224 104.34681515 47.47619018 108.17081125 47.47265625 111.99609375 C47.48086682 113.98557455 47.48908891 115.97505575 47.49893016 117.96452916 C47.52921966 124.21783461 47.53259894 130.47076737 47.51977539 136.72412109 C47.50709971 143.16054445 47.54225897 149.59546729 47.60065919 156.03160465 C47.64907471 161.57074937 47.66632087 167.10941491 47.65918463 172.64876568 C47.65531591 175.95150087 47.66684194 179.25285846 47.70179176 182.55544662 C47.73633603 186.24241962 47.7198648 189.92584725 47.69067383 193.61279297 C47.71158081 194.69669312 47.73248779 195.78059326 47.75402832 196.89733887 C47.65023496 202.66152701 46.97105255 205.83842888 42.8914032 210.05569458 C38.23688588 214.20478208 34.98715997 215.68911071 28.71975708 215.70883179 C27.49446289 215.71736176 26.2691687 215.72589172 25.00674438 215.73468018 C23.6517943 215.73398118 22.29684433 215.73305813 20.94189453 215.73193359 C19.5126307 215.73791903 18.08337011 215.74472461 16.65411377 215.75228882 C12.77388894 215.76995456 8.89375231 215.77464443 5.01349115 215.77592039 C2.58854283 215.77734222 0.16361692 215.78161242 -2.26132584 215.78691483 C-10.72322259 215.80541698 -19.18505634 215.8135852 -27.64697266 215.81201172 C-35.53140784 215.81081025 -43.4155693 215.83191301 -51.29993522 215.86349905 C-58.07204121 215.88966119 -64.84405779 215.90037904 -71.61621392 215.8991009 C-75.65962415 215.89859125 -79.70279113 215.9042761 -83.74615097 215.925457 C-87.54985069 215.94483855 -91.35307508 215.94496482 -95.15679169 215.93042374 C-96.55075653 215.9283344 -97.94475112 215.93304409 -99.33866501 215.94514465 C-108.11924722 216.01641646 -112.81573432 215.80981383 -119.16015625 209.625 C-119.63839844 209.04878906 -120.11664063 208.47257813 -120.609375 207.87890625 C-121.10050781 207.30011719 -121.59164062 206.72132813 -122.09765625 206.125 C-124.24510753 203.11017426 -124.42543646 200.41493884 -124.44404602 196.83782959 C-124.45120132 195.89302231 -124.45835663 194.94821503 -124.46572876 193.97477722 C-124.46841766 192.93992691 -124.47110657 191.9050766 -124.47387695 190.83886719 C-124.48373375 189.20184593 -124.48373375 189.20184593 -124.49378967 187.53175354 C-124.51353176 183.91309544 -124.5251872 180.29447885 -124.53515625 176.67578125 C-124.53923178 175.44058998 -124.5433073 174.20539871 -124.54750633 172.9327774 C-124.56621902 167.06962489 -124.58078398 161.20648872 -124.5891183 155.34331203 C-124.59888494 148.58482366 -124.62519134 141.8266633 -124.66561919 135.06829047 C-124.69947065 129.20728615 -124.71126764 123.34639144 -124.71532249 117.48529816 C-124.72019494 114.99582952 -124.73182754 112.50636456 -124.75036049 110.01696014 C-124.77469601 106.53154879 -124.77379661 103.04699366 -124.7668457 99.56152344 C-124.77965576 98.53477005 -124.79246582 97.50801666 -124.80566406 96.45014954 C-124.75463578 89.4241207 -123.59143382 84.95665322 -118.6640625 79.69921875 C-113.26781509 75.60259113 -110.93030012 75.33441552 -104.296875 75.44140625 C-104.31258545 74.60593262 -104.3282959 73.77045898 -104.34448242 72.90966797 C-104.39635256 69.7374919 -104.4335784 66.56553554 -104.46166992 63.39306641 C-104.48374667 61.37387513 -104.52191157 59.35487983 -104.56054688 57.3359375 C-104.69637327 38.95409809 -100.41486824 23.05689972 -87.63354492 9.57568359 C-80.95527909 2.87581996 -73.15296065 -3.08440253 -64.296875 -6.55859375 C-63.38550781 -6.92984375 -62.47414062 -7.30109375 -61.53515625 -7.68359375 C-41.44490695 -14.66307722 -17.60272434 -11.9447058 0 0 Z M-68.296875 25.44140625 C-78.53966989 41.43592443 -77.296875 56.28928598 -77.296875 75.44140625 C-51.556875 75.44140625 -25.816875 75.44140625 0.703125 75.44140625 C1.70747665 46.53554833 1.70747665 46.53554833 -11.296875 22.44140625 C-12.06257813 21.52681641 -12.06257813 21.52681641 -12.84375 20.59375 C-18.48040854 14.27264007 -25.12433306 10.7351844 -33.5859375 9.92578125 C-48.15604107 9.11839335 -59.10934552 13.77740278 -68.296875 25.44140625 Z M-106.296875 95.44140625 C-107.61965621 99.40974989 -107.44431404 103.21014375 -107.44213867 107.34741211 C-107.44549728 108.25826065 -107.4488559 109.16910919 -107.45231628 110.1075592 C-107.46182895 113.12380327 -107.4637695 116.13999186 -107.46484375 119.15625 C-107.4680559 121.24988325 -107.47141994 123.34351627 -107.47492981 125.43714905 C-107.48092172 129.82781495 -107.48276962 134.21846116 -107.48217773 138.60913086 C-107.48207606 144.23950017 -107.49573339 149.86974353 -107.51294994 155.50008297 C-107.52405928 159.82459597 -107.52609728 164.1490784 -107.52556801 168.4736042 C-107.52674954 170.54966224 -107.53118096 172.62572104 -107.53890038 174.70176506 C-107.54867951 177.60326889 -107.54583049 180.50449776 -107.53979492 183.40600586 C-107.54541443 184.26588104 -107.55103394 185.12575623 -107.55682373 186.01168823 C-107.55262924 186.80378189 -107.54843475 187.59587555 -107.54411316 188.41197205 C-107.54465793 189.09757674 -107.54520269 189.78318144 -107.54576397 190.48956203 C-107.23840102 192.89997261 -106.63591117 194.40970699 -105.296875 196.44140625 C-102.26669304 198.51775513 -99.72243068 198.69395432 -96.10401917 198.70210266 C-95.05397705 198.70918747 -94.00393494 198.71627228 -92.92207336 198.72357178 C-91.77546738 198.72109436 -90.62886139 198.71861694 -89.44750977 198.71606445 C-88.2357608 198.72117538 -87.02401184 198.72628632 -85.77554321 198.73155212 C-82.45521996 198.74307077 -79.13514634 198.74552169 -75.81482053 198.74298882 C-73.04145548 198.7419186 -70.26811342 198.7468038 -67.4947533 198.75159425 C-60.95115591 198.7626868 -54.40761592 198.76312826 -47.86401367 198.75708008 C-41.1168021 198.75103953 -34.36979902 198.76335378 -27.62262303 198.78465015 C-21.82632035 198.80227152 -16.030084 198.80826667 -10.23375553 198.8050124 C-6.77336421 198.80320025 -3.31312163 198.8058288 0.14724541 198.81972694 C4.00636846 198.83464689 7.86522638 198.82533043 11.72436523 198.8137207 C12.86894699 198.82136444 14.01352875 198.82900818 15.1927948 198.83688354 C16.24565674 198.82986923 17.29851868 198.82285492 18.38328552 198.81562805 C19.29527427 198.81579579 20.20726301 198.81596354 21.14688778 198.81613636 C24.2895842 198.3554346 26.16731136 197.33371869 28.703125 195.44140625 C30.0238991 191.47908396 29.85888971 187.68267805 29.86425781 183.55126953 C29.86922272 182.64202728 29.87418762 181.73278503 29.87930298 180.79598999 C29.89392219 177.78455858 29.90072592 174.77317983 29.90625 171.76171875 C29.91200129 169.67048135 29.91775902 167.57924396 29.92352295 165.48800659 C29.934032 161.10153965 29.93987542 156.71509104 29.94335938 152.32861328 C29.9488464 146.70725654 29.97287939 141.08614174 30.00133133 135.46486092 C30.01995153 131.14459525 30.02516297 126.82438795 30.02669525 122.50408554 C30.02972328 120.43163606 30.03775686 118.35918764 30.05088043 116.2867775 C30.06792915 113.38777476 30.06606357 110.48936451 30.05957031 107.59033203 C30.07339249 106.30591217 30.07339249 106.30591217 30.0874939 104.99554443 C30.05472715 100.32708353 29.75081434 97.22684788 26.703125 93.44140625 C24.19276912 92.18622831 22.47839262 92.30995799 19.66812134 92.30096436 C18.06977196 92.29239914 18.06977196 92.29239914 16.43913269 92.28366089 C14.6780291 92.2819841 14.6780291 92.2819841 12.88134766 92.28027344 C11.64877731 92.27530853 10.41620697 92.27034363 9.14628601 92.26522827 C5.75986439 92.25310653 2.37350463 92.24565812 -1.01293135 92.24121761 C-3.12795371 92.23828798 -5.24297064 92.23418339 -7.35799026 92.22971344 C-13.97345816 92.21603696 -20.58891365 92.20637099 -27.2043947 92.20251155 C-34.84466097 92.19802995 -42.48474841 92.18047811 -50.1249603 92.15151095 C-56.02820274 92.12990516 -61.93139482 92.11980787 -67.83467638 92.11847043 C-71.3615885 92.11742162 -74.88833255 92.11149794 -78.41520309 92.09365082 C-82.34896383 92.07413219 -86.28250052 92.07845472 -90.21630859 92.08496094 C-91.38632919 92.07574615 -92.55634979 92.06653137 -93.76182556 92.05703735 C-94.83303146 92.06260651 -95.90423737 92.06817566 -97.00790405 92.07391357 C-97.93816092 92.07244701 -98.86841778 92.07098045 -99.82686424 92.06946945 C-102.79417795 92.51629065 -104.14596897 93.37421414 -106.296875 95.44140625 Z " fill="#000000" transform="translate(166.296875,14.55859375)"/>
<path d="M0 0 C4.8404001 2.60960701 8.06650639 6.09014417 9.796875 11.28125 C10.46134634 18.73204333 10.42094844 24.24426523 5.796875 30.28125 C3.546875 32.21875 3.546875 32.21875 1.796875 33.28125 C2.37321899 36.74348759 3.24618962 39.52622636 4.86328125 42.63671875 C5.4675293 43.81717773 5.4675293 43.81717773 6.08398438 45.02148438 C6.50486328 45.82908203 6.92574219 46.63667969 7.359375 47.46875 C8.19758602 49.08539068 9.03239936 50.70379902 9.86328125 52.32421875 C10.23396729 53.03602295 10.60465332 53.74782715 10.98657227 54.48120117 C11.796875 56.28125 11.796875 56.28125 11.796875 58.28125 C-1.403125 58.28125 -14.603125 58.28125 -28.203125 58.28125 C-25.9584127 51.54711309 -25.9584127 51.54711309 -24.2578125 48.30078125 C-23.90332031 47.61177734 -23.54882812 46.92277344 -23.18359375 46.21289062 C-22.44013756 44.787714 -21.69532218 43.36324566 -20.94921875 41.93945312 C-18.79079222 37.82613926 -18.79079222 37.82613926 -18.203125 33.28125 C-18.96625 32.683125 -19.729375 32.085 -20.515625 31.46875 C-24.45011518 28.266258 -25.94421986 25.551406 -26.5234375 20.47265625 C-26.77263788 13.81900618 -26.29350636 9.58769068 -22.203125 4.28125 C-16.11678464 -1.35974838 -7.95715926 -2.59595267 0 0 Z " fill="#000000" transform="translate(136.203125,127.71875)"/>
</svg>